<mxfile host="app.diagrams.net" modified="2023-06-06T15:01:20.606Z" agent="Mozilla/5.0 (Windows NT 10.0; Win64; x64) AppleWebKit/537.36 (KHTML, like Gecko) Chrome/114.0.0.0 Safari/537.36 Edg/114.0.1823.37" etag="ekfZibIXTWR5JyZWoJWJ" version="21.3.3" type="device">
  <diagram name="Page-1" id="CHn9WOKtg3yaj_x3Etmd">
    <mxGraphModel dx="1434" dy="788" grid="1" gridSize="10" guides="1" tooltips="1" connect="1" arrows="1" fold="1" page="1" pageScale="1" pageWidth="827" pageHeight="1169" math="0" shadow="0">
      <root>
        <mxCell id="0" />
        <mxCell id="1" parent="0" />
        <mxCell id="nuwyxVhRlpsigbD1GOly-16" style="rounded=0;orthogonalLoop=1;jettySize=auto;html=1;exitX=0.5;exitY=1;exitDx=0;exitDy=0;exitPerimeter=0;entryX=0.5;entryY=0;entryDx=0;entryDy=0;" parent="1" source="nuwyxVhRlpsigbD1GOly-2" target="nuwyxVhRlpsigbD1GOly-4" edge="1">
          <mxGeometry relative="1" as="geometry" />
        </mxCell>
        <mxCell id="ABeEWM-SGmRWgQ4ZddoU-2" style="edgeStyle=orthogonalEdgeStyle;rounded=0;orthogonalLoop=1;jettySize=auto;html=1;exitX=0;exitY=0;exitDx=390;exitDy=30;exitPerimeter=0;entryX=0.5;entryY=0;entryDx=0;entryDy=0;endArrow=none;endFill=0;" edge="1" parent="1" source="nuwyxVhRlpsigbD1GOly-2" target="nuwyxVhRlpsigbD1GOly-42">
          <mxGeometry relative="1" as="geometry" />
        </mxCell>
        <mxCell id="ABeEWM-SGmRWgQ4ZddoU-3" style="edgeStyle=orthogonalEdgeStyle;rounded=0;orthogonalLoop=1;jettySize=auto;html=1;exitX=0;exitY=0;exitDx=390;exitDy=30;exitPerimeter=0;entryX=0.5;entryY=0;entryDx=0;entryDy=0;endArrow=none;endFill=0;" edge="1" parent="1" source="nuwyxVhRlpsigbD1GOly-2" target="ABeEWM-SGmRWgQ4ZddoU-1">
          <mxGeometry relative="1" as="geometry" />
        </mxCell>
        <mxCell id="ABeEWM-SGmRWgQ4ZddoU-4" style="edgeStyle=orthogonalEdgeStyle;rounded=0;orthogonalLoop=1;jettySize=auto;html=1;exitX=0;exitY=0;exitDx=390;exitDy=30;exitPerimeter=0;entryX=0.5;entryY=0;entryDx=0;entryDy=0;endArrow=none;endFill=0;" edge="1" parent="1" source="nuwyxVhRlpsigbD1GOly-2" target="nuwyxVhRlpsigbD1GOly-45">
          <mxGeometry relative="1" as="geometry" />
        </mxCell>
        <mxCell id="nuwyxVhRlpsigbD1GOly-2" value="Input:&lt;br&gt;Constraint: &lt;b&gt;Tuple&amp;lt;TypeWithAnnotations, BoundExpression, Bound&amp;gt;&lt;br&gt;&lt;/b&gt;NewTypeVariables:&lt;b&gt; ImmutableArray&amp;lt;TypeSymbol&amp;gt;&lt;/b&gt;" style="shape=note;whiteSpace=wrap;html=1;backgroundOutline=1;darkOpacity=0.05;fillColor=#f8cecc;strokeColor=#b85450;" parent="1" vertex="1">
          <mxGeometry x="40" width="390" height="80" as="geometry" />
        </mxCell>
        <mxCell id="nuwyxVhRlpsigbD1GOly-22" style="rounded=0;orthogonalLoop=1;jettySize=auto;html=1;exitX=0.5;exitY=1;exitDx=0;exitDy=0;entryX=0;entryY=0;entryDx=105;entryDy=0;entryPerimeter=0;" parent="1" source="nuwyxVhRlpsigbD1GOly-4" target="nuwyxVhRlpsigbD1GOly-21" edge="1">
          <mxGeometry relative="1" as="geometry" />
        </mxCell>
        <mxCell id="nuwyxVhRlpsigbD1GOly-54" style="rounded=0;orthogonalLoop=1;jettySize=auto;html=1;exitX=1;exitY=0.75;exitDx=0;exitDy=0;entryX=0;entryY=0.5;entryDx=0;entryDy=0;endArrow=none;endFill=0;" parent="1" source="nuwyxVhRlpsigbD1GOly-4" target="nuwyxVhRlpsigbD1GOly-53" edge="1">
          <mxGeometry relative="1" as="geometry" />
        </mxCell>
        <mxCell id="nuwyxVhRlpsigbD1GOly-4" value="" style="swimlane;startSize=0;" parent="1" vertex="1">
          <mxGeometry x="30" y="200" width="200" height="310" as="geometry" />
        </mxCell>
        <mxCell id="nuwyxVhRlpsigbD1GOly-7" value="The first phase" style="text;html=1;align=center;verticalAlign=middle;resizable=0;points=[];autosize=1;strokeColor=none;fillColor=none;" parent="nuwyxVhRlpsigbD1GOly-4" vertex="1">
          <mxGeometry x="10" width="100" height="30" as="geometry" />
        </mxCell>
        <mxCell id="nuwyxVhRlpsigbD1GOly-17" value="&lt;b&gt;Explicitly parameter type inferences&lt;/b&gt;&lt;br&gt;(Typed anonymous functions)" style="rounded=0;whiteSpace=wrap;html=1;fillColor=#d5e8d4;strokeColor=#82b366;" parent="nuwyxVhRlpsigbD1GOly-4" vertex="1">
          <mxGeometry x="5" y="30" width="190" height="50" as="geometry" />
        </mxCell>
        <mxCell id="nuwyxVhRlpsigbD1GOly-20" value="&lt;b&gt;Exact inferences&lt;/b&gt;&lt;br&gt;(Only collect bounds)" style="rounded=0;whiteSpace=wrap;html=1;fillColor=#d5e8d4;strokeColor=#82b366;" parent="nuwyxVhRlpsigbD1GOly-4" vertex="1">
          <mxGeometry x="5" y="90" width="185" height="40" as="geometry" />
        </mxCell>
        <mxCell id="nuwyxVhRlpsigbD1GOly-18" value="&lt;b&gt;Lower-bound inferences&lt;/b&gt;&lt;br&gt;(Only collect bounds)" style="rounded=0;whiteSpace=wrap;html=1;fillColor=#d5e8d4;strokeColor=#82b366;" parent="nuwyxVhRlpsigbD1GOly-4" vertex="1">
          <mxGeometry x="5" y="140" width="185" height="40" as="geometry" />
        </mxCell>
        <mxCell id="nuwyxVhRlpsigbD1GOly-19" value="&lt;b&gt;Upper-bound inferences&lt;/b&gt;&lt;br&gt;(Only collect bounds)" style="rounded=0;whiteSpace=wrap;html=1;fillColor=#d5e8d4;strokeColor=#82b366;" parent="nuwyxVhRlpsigbD1GOly-4" vertex="1">
          <mxGeometry x="5" y="190" width="185" height="40" as="geometry" />
        </mxCell>
        <mxCell id="nuwyxVhRlpsigbD1GOly-47" value="Shape-Bound inference&lt;br&gt;(Only adds the type to Shape-bounds for that type variable)" style="rounded=0;whiteSpace=wrap;html=1;fillColor=#f8cecc;strokeColor=#b85450;" parent="nuwyxVhRlpsigbD1GOly-4" vertex="1">
          <mxGeometry x="10" y="240" width="180" height="60" as="geometry" />
        </mxCell>
        <mxCell id="nuwyxVhRlpsigbD1GOly-11" style="edgeStyle=orthogonalEdgeStyle;rounded=0;orthogonalLoop=1;jettySize=auto;html=1;exitX=1;exitY=0.5;exitDx=0;exitDy=0;entryX=0.5;entryY=0;entryDx=0;entryDy=0;" parent="1" source="nuwyxVhRlpsigbD1GOly-5" target="nuwyxVhRlpsigbD1GOly-10" edge="1">
          <mxGeometry relative="1" as="geometry" />
        </mxCell>
        <mxCell id="nuwyxVhRlpsigbD1GOly-5" value="" style="swimlane;startSize=0;" parent="1" vertex="1">
          <mxGeometry x="650" y="202.5" width="200" height="270" as="geometry" />
        </mxCell>
        <mxCell id="nuwyxVhRlpsigbD1GOly-8" value="The second phase" style="text;html=1;align=center;verticalAlign=middle;resizable=0;points=[];autosize=1;strokeColor=none;fillColor=none;" parent="nuwyxVhRlpsigbD1GOly-5" vertex="1">
          <mxGeometry x="10" width="120" height="30" as="geometry" />
        </mxCell>
        <mxCell id="nuwyxVhRlpsigbD1GOly-24" value="&lt;b&gt;Output type inferences&lt;/b&gt;&lt;br&gt;(anonymous functions without explicitly typed parameters)" style="rounded=0;whiteSpace=wrap;html=1;fillColor=#d5e8d4;strokeColor=#82b366;" parent="nuwyxVhRlpsigbD1GOly-5" vertex="1">
          <mxGeometry x="18.5" y="90" width="166" height="60" as="geometry" />
        </mxCell>
        <mxCell id="nuwyxVhRlpsigbD1GOly-25" value="&lt;b&gt;Fix&lt;/b&gt; nondependent type parameters" style="rounded=0;whiteSpace=wrap;html=1;fillColor=#d5e8d4;strokeColor=#82b366;" parent="nuwyxVhRlpsigbD1GOly-5" vertex="1">
          <mxGeometry x="18.5" y="160" width="163" height="40" as="geometry" />
        </mxCell>
        <mxCell id="nuwyxVhRlpsigbD1GOly-26" value="&lt;b&gt;Fix&lt;/b&gt; dependent type parameters which has at least one bound" style="rounded=0;whiteSpace=wrap;html=1;fillColor=#d5e8d4;strokeColor=#82b366;" parent="nuwyxVhRlpsigbD1GOly-5" vertex="1">
          <mxGeometry x="20" y="210" width="163" height="45" as="geometry" />
        </mxCell>
        <mxCell id="nuwyxVhRlpsigbD1GOly-40" value="Initialize input/output dependencies" style="rounded=0;whiteSpace=wrap;html=1;fillColor=#d5e8d4;strokeColor=#82b366;" parent="nuwyxVhRlpsigbD1GOly-5" vertex="1">
          <mxGeometry x="20" y="40" width="160" height="40" as="geometry" />
        </mxCell>
        <mxCell id="nuwyxVhRlpsigbD1GOly-12" style="edgeStyle=orthogonalEdgeStyle;rounded=0;orthogonalLoop=1;jettySize=auto;html=1;exitX=0;exitY=0.5;exitDx=0;exitDy=0;entryX=0.5;entryY=1;entryDx=0;entryDy=0;" parent="1" source="nuwyxVhRlpsigbD1GOly-10" target="nuwyxVhRlpsigbD1GOly-5" edge="1">
          <mxGeometry relative="1" as="geometry" />
        </mxCell>
        <mxCell id="nuwyxVhRlpsigbD1GOly-13" style="edgeStyle=orthogonalEdgeStyle;rounded=0;orthogonalLoop=1;jettySize=auto;html=1;exitX=0.5;exitY=1;exitDx=0;exitDy=0;entryX=0.5;entryY=0;entryDx=0;entryDy=0;entryPerimeter=0;" parent="1" source="nuwyxVhRlpsigbD1GOly-10" target="nuwyxVhRlpsigbD1GOly-14" edge="1">
          <mxGeometry relative="1" as="geometry">
            <mxPoint x="955" y="590" as="targetPoint" />
          </mxGeometry>
        </mxCell>
        <mxCell id="nuwyxVhRlpsigbD1GOly-10" value="All type parameters are inferred or no progress was made" style="rhombus;whiteSpace=wrap;html=1;fillColor=#d5e8d4;strokeColor=#82b366;" parent="1" vertex="1">
          <mxGeometry x="880" y="430" width="110" height="140" as="geometry" />
        </mxCell>
        <mxCell id="nuwyxVhRlpsigbD1GOly-14" value="Output:&lt;br&gt;&lt;b&gt;MethodTypeInferenceResult&lt;/b&gt;&lt;br&gt;(&lt;i&gt;MethodTypeInference.cs&lt;/i&gt;)" style="shape=note;whiteSpace=wrap;html=1;backgroundOutline=1;darkOpacity=0.05;fillColor=#dae8fc;strokeColor=#6c8ebf;" parent="1" vertex="1">
          <mxGeometry x="850" y="600" width="170" height="80" as="geometry" />
        </mxCell>
        <mxCell id="nuwyxVhRlpsigbD1GOly-23" style="edgeStyle=orthogonalEdgeStyle;rounded=0;orthogonalLoop=1;jettySize=auto;html=1;exitX=0;exitY=0;exitDx=240;exitDy=55;exitPerimeter=0;entryX=0.5;entryY=0;entryDx=0;entryDy=0;" parent="1" source="nuwyxVhRlpsigbD1GOly-21" target="nuwyxVhRlpsigbD1GOly-5" edge="1">
          <mxGeometry relative="1" as="geometry">
            <Array as="points">
              <mxPoint x="620" y="615" />
              <mxPoint x="620" y="170" />
              <mxPoint x="750" y="170" />
            </Array>
            <mxPoint x="770" y="170" as="targetPoint" />
          </mxGeometry>
        </mxCell>
        <mxCell id="nuwyxVhRlpsigbD1GOly-21" value="Output:&lt;br&gt;Lower, Upper, and Exact bounds for type parameters deduced from type arguments" style="shape=note;whiteSpace=wrap;html=1;backgroundOutline=1;darkOpacity=0.05;fillColor=#dae8fc;strokeColor=#6c8ebf;" parent="1" vertex="1">
          <mxGeometry x="20" y="560" width="240" height="80" as="geometry" />
        </mxCell>
        <mxCell id="nuwyxVhRlpsigbD1GOly-28" value="" style="swimlane;startSize=0;" parent="1" vertex="1">
          <mxGeometry x="40" y="910" width="700" height="171" as="geometry" />
        </mxCell>
        <mxCell id="nuwyxVhRlpsigbD1GOly-29" value="Fixing" style="text;html=1;align=center;verticalAlign=middle;resizable=0;points=[];autosize=1;strokeColor=none;fillColor=none;" parent="nuwyxVhRlpsigbD1GOly-28" vertex="1">
          <mxGeometry x="10" width="60" height="30" as="geometry" />
        </mxCell>
        <mxCell id="nuwyxVhRlpsigbD1GOly-36" style="edgeStyle=orthogonalEdgeStyle;rounded=0;orthogonalLoop=1;jettySize=auto;html=1;exitX=1;exitY=0.5;exitDx=0;exitDy=0;entryX=0;entryY=0.5;entryDx=0;entryDy=0;" parent="nuwyxVhRlpsigbD1GOly-28" source="nuwyxVhRlpsigbD1GOly-30" target="nuwyxVhRlpsigbD1GOly-31" edge="1">
          <mxGeometry relative="1" as="geometry" />
        </mxCell>
        <mxCell id="nuwyxVhRlpsigbD1GOly-30" value="Collect all candidates from bounds of the type parameter" style="rounded=0;whiteSpace=wrap;html=1;fillColor=#d5e8d4;strokeColor=#82b366;" parent="nuwyxVhRlpsigbD1GOly-28" vertex="1">
          <mxGeometry x="10" y="30" width="120" height="60" as="geometry" />
        </mxCell>
        <mxCell id="nuwyxVhRlpsigbD1GOly-37" style="edgeStyle=orthogonalEdgeStyle;rounded=0;orthogonalLoop=1;jettySize=auto;html=1;exitX=1;exitY=0.5;exitDx=0;exitDy=0;entryX=0;entryY=0.5;entryDx=0;entryDy=0;" parent="nuwyxVhRlpsigbD1GOly-28" source="nuwyxVhRlpsigbD1GOly-31" target="nuwyxVhRlpsigbD1GOly-32" edge="1">
          <mxGeometry relative="1" as="geometry">
            <mxPoint x="340" y="-119" as="targetPoint" />
          </mxGeometry>
        </mxCell>
        <mxCell id="nuwyxVhRlpsigbD1GOly-31" value="Go through all lower bounds and exclude that candidates, which can&#39;t be converted to that bounds" style="rounded=0;whiteSpace=wrap;html=1;fillColor=#d5e8d4;strokeColor=#82b366;" parent="nuwyxVhRlpsigbD1GOly-28" vertex="1">
          <mxGeometry x="150" y="25" width="170" height="70" as="geometry" />
        </mxCell>
        <mxCell id="nuwyxVhRlpsigbD1GOly-38" style="edgeStyle=orthogonalEdgeStyle;rounded=0;orthogonalLoop=1;jettySize=auto;html=1;exitX=1;exitY=0.5;exitDx=0;exitDy=0;entryX=0;entryY=0.5;entryDx=0;entryDy=0;" parent="nuwyxVhRlpsigbD1GOly-28" source="nuwyxVhRlpsigbD1GOly-32" target="nuwyxVhRlpsigbD1GOly-33" edge="1">
          <mxGeometry relative="1" as="geometry" />
        </mxCell>
        <mxCell id="nuwyxVhRlpsigbD1GOly-32" value="Go through all upper bounds and exclude that candidates, which can&#39;t convert to that bounds" style="rounded=0;whiteSpace=wrap;html=1;fillColor=#d5e8d4;strokeColor=#82b366;" parent="nuwyxVhRlpsigbD1GOly-28" vertex="1">
          <mxGeometry x="340" y="22.5" width="140" height="75" as="geometry" />
        </mxCell>
        <mxCell id="nuwyxVhRlpsigbD1GOly-39" style="edgeStyle=orthogonalEdgeStyle;rounded=0;orthogonalLoop=1;jettySize=auto;html=1;exitX=1;exitY=0.5;exitDx=0;exitDy=0;entryX=1;entryY=0.5;entryDx=0;entryDy=0;" parent="nuwyxVhRlpsigbD1GOly-28" source="nuwyxVhRlpsigbD1GOly-33" target="nuwyxVhRlpsigbD1GOly-34" edge="1">
          <mxGeometry relative="1" as="geometry" />
        </mxCell>
        <mxCell id="nuwyxVhRlpsigbD1GOly-33" value="Go through all exact bounds and exclude that candidates, which are not identical with that bounds" style="rounded=0;whiteSpace=wrap;html=1;fillColor=#d5e8d4;strokeColor=#82b366;" parent="nuwyxVhRlpsigbD1GOly-28" vertex="1">
          <mxGeometry x="500" y="17.5" width="140" height="85" as="geometry" />
        </mxCell>
        <mxCell id="nuwyxVhRlpsigbD1GOly-34" value="Determine the one candidate if you can" style="rounded=0;whiteSpace=wrap;html=1;fillColor=#d5e8d4;strokeColor=#82b366;" parent="nuwyxVhRlpsigbD1GOly-28" vertex="1">
          <mxGeometry x="330" y="111" width="120" height="49" as="geometry" />
        </mxCell>
        <mxCell id="nuwyxVhRlpsigbD1GOly-42" value="Type variables would be &lt;b&gt;TypeParameterSymbol &lt;/b&gt;or &lt;b&gt;InferredTypeArgumentSymbol&lt;/b&gt;" style="rounded=1;whiteSpace=wrap;html=1;fillColor=#f8cecc;strokeColor=#b85450;" parent="1" vertex="1">
          <mxGeometry x="480" y="50" width="190" height="70" as="geometry" />
        </mxCell>
        <mxCell id="nuwyxVhRlpsigbD1GOly-45" value="There will be new bound &lt;b&gt;Shape&lt;/b&gt;&amp;nbsp;which forces to type variable be exactly the same (&lt;b&gt;Exact&lt;/b&gt; bound is not enough since it doesn&#39;t respect nullability at all). &lt;b&gt;Shape&lt;/b&gt; is used when type argument list is used with inferred type arguments" style="rounded=1;whiteSpace=wrap;html=1;fillColor=#f8cecc;strokeColor=#b85450;" parent="1" vertex="1">
          <mxGeometry x="980" y="50" width="210" height="110" as="geometry" />
        </mxCell>
        <mxCell id="nuwyxVhRlpsigbD1GOly-50" style="rounded=0;orthogonalLoop=1;jettySize=auto;html=1;exitX=0;exitY=0.5;exitDx=0;exitDy=0;entryX=1;entryY=0.25;entryDx=0;entryDy=0;endArrow=none;endFill=0;" parent="1" source="nuwyxVhRlpsigbD1GOly-48" target="nuwyxVhRlpsigbD1GOly-4" edge="1">
          <mxGeometry relative="1" as="geometry" />
        </mxCell>
        <mxCell id="nuwyxVhRlpsigbD1GOly-51" style="rounded=0;orthogonalLoop=1;jettySize=auto;html=1;exitX=1;exitY=0.5;exitDx=0;exitDy=0;entryX=0;entryY=0.25;entryDx=0;entryDy=0;endArrow=none;endFill=0;" parent="1" source="nuwyxVhRlpsigbD1GOly-48" target="nuwyxVhRlpsigbD1GOly-5" edge="1">
          <mxGeometry relative="1" as="geometry" />
        </mxCell>
        <mxCell id="nuwyxVhRlpsigbD1GOly-48" value="There are new dependencies. &lt;b&gt;TypeVarDependency&lt;/b&gt; tracks which type variables have the investigated type variable in (Lower, Upper, Exact) bounds. &lt;b&gt;ShapeTypeVarDependency&lt;/b&gt; is the same for Shape-bounds. These dependencies are compute during the first and second phase as adding new bounds." style="rounded=1;whiteSpace=wrap;html=1;fillColor=#f8cecc;strokeColor=#b85450;" parent="1" vertex="1">
          <mxGeometry x="260" y="220" width="330" height="110" as="geometry" />
        </mxCell>
        <mxCell id="nuwyxVhRlpsigbD1GOly-55" style="rounded=0;orthogonalLoop=1;jettySize=auto;html=1;exitX=1;exitY=0.5;exitDx=0;exitDy=0;entryX=0;entryY=0.75;entryDx=0;entryDy=0;endArrow=none;endFill=0;" parent="1" source="nuwyxVhRlpsigbD1GOly-53" target="nuwyxVhRlpsigbD1GOly-5" edge="1">
          <mxGeometry relative="1" as="geometry" />
        </mxCell>
        <mxCell id="nuwyxVhRlpsigbD1GOly-53" value="When we add new bounds, we have to go through already added belonging to that type variable and add new constraint for each of a pair (bound currently adding, already added bound) if the pair contains any type variable" style="rounded=1;whiteSpace=wrap;html=1;fillColor=#f8cecc;strokeColor=#b85450;" parent="1" vertex="1">
          <mxGeometry x="260" y="387.5" width="330" height="85" as="geometry" />
        </mxCell>
        <mxCell id="nuwyxVhRlpsigbD1GOly-57" style="rounded=0;orthogonalLoop=1;jettySize=auto;html=1;exitX=0.5;exitY=0;exitDx=0;exitDy=0;entryX=0;entryY=1;entryDx=0;entryDy=0;endArrow=none;endFill=0;" parent="1" source="nuwyxVhRlpsigbD1GOly-56" target="nuwyxVhRlpsigbD1GOly-5" edge="1">
          <mxGeometry relative="1" as="geometry" />
        </mxCell>
        <mxCell id="nuwyxVhRlpsigbD1GOly-56" value="Because the second phase makes output&amp;nbsp; type inference which depends on fixed type variables, we have to store two things. TypeInferenceContext without inferred any dependent type arguments(in terms of input/output dependency), and all these dependent constrains. When a new constrain arrive, we will infer these constrains again with maybe new values of fixed variables. After returning the result, we will unroll the context to previous state" style="rounded=1;whiteSpace=wrap;html=1;fillColor=#f8cecc;strokeColor=#b85450;" parent="1" vertex="1">
          <mxGeometry x="300" y="640" width="310" height="135" as="geometry" />
        </mxCell>
        <mxCell id="nuwyxVhRlpsigbD1GOly-60" style="rounded=0;orthogonalLoop=1;jettySize=auto;html=1;exitX=0.5;exitY=0;exitDx=0;exitDy=0;entryX=0.395;entryY=0.999;entryDx=0;entryDy=0;entryPerimeter=0;endArrow=none;endFill=0;" parent="1" source="nuwyxVhRlpsigbD1GOly-59" target="nuwyxVhRlpsigbD1GOly-5" edge="1">
          <mxGeometry relative="1" as="geometry" />
        </mxCell>
        <mxCell id="nuwyxVhRlpsigbD1GOly-59" value="Because adding new constrains can change already fixed results, we don&#39;t store fixed type variables and only computes them on demand" style="rounded=1;whiteSpace=wrap;html=1;fillColor=#f8cecc;strokeColor=#b85450;" parent="1" vertex="1">
          <mxGeometry x="640" y="600" width="180" height="100" as="geometry" />
        </mxCell>
        <mxCell id="nuwyxVhRlpsigbD1GOly-62" style="rounded=0;orthogonalLoop=1;jettySize=auto;html=1;exitX=0.5;exitY=0;exitDx=0;exitDy=0;entryX=0.5;entryY=1;entryDx=0;entryDy=0;entryPerimeter=0;endArrow=none;endFill=0;" parent="1" source="nuwyxVhRlpsigbD1GOly-61" target="nuwyxVhRlpsigbD1GOly-14" edge="1">
          <mxGeometry relative="1" as="geometry" />
        </mxCell>
        <mxCell id="nuwyxVhRlpsigbD1GOly-61" value="We have to track if the type inference failed due to not enough bounds or bounds conflict" style="rounded=1;whiteSpace=wrap;html=1;fillColor=#f8cecc;strokeColor=#b85450;" parent="1" vertex="1">
          <mxGeometry x="870" y="700" width="130" height="80" as="geometry" />
        </mxCell>
        <mxCell id="nuwyxVhRlpsigbD1GOly-64" style="rounded=0;orthogonalLoop=1;jettySize=auto;html=1;exitX=0;exitY=0.5;exitDx=0;exitDy=0;entryX=1;entryY=0.5;entryDx=0;entryDy=0;endArrow=none;endFill=0;" parent="1" source="nuwyxVhRlpsigbD1GOly-63" target="nuwyxVhRlpsigbD1GOly-26" edge="1">
          <mxGeometry relative="1" as="geometry" />
        </mxCell>
        <mxCell id="nuwyxVhRlpsigbD1GOly-63" value="We will fix type variables, which are output/input dependent or TypeVar dependent and contains at least one bound which doesn&#39;t contain any unfixed type variable&amp;nbsp;" style="rounded=1;whiteSpace=wrap;html=1;fillColor=#f8cecc;strokeColor=#b85450;" parent="1" vertex="1">
          <mxGeometry x="900" y="200" width="150" height="110" as="geometry" />
        </mxCell>
        <mxCell id="nuwyxVhRlpsigbD1GOly-66" style="rounded=0;orthogonalLoop=1;jettySize=auto;html=1;exitX=0.5;exitY=1;exitDx=0;exitDy=0;entryX=0.477;entryY=-0.006;entryDx=0;entryDy=0;entryPerimeter=0;endArrow=none;endFill=0;" parent="1" source="nuwyxVhRlpsigbD1GOly-65" target="nuwyxVhRlpsigbD1GOly-28" edge="1">
          <mxGeometry relative="1" as="geometry" />
        </mxCell>
        <mxCell id="nuwyxVhRlpsigbD1GOly-65" value="We check the condition also for Shape-bound and prohibit to change the nullability(&lt;b&gt;?&lt;/b&gt; to &lt;b&gt;!&lt;/b&gt; and vice-versa)" style="rounded=1;whiteSpace=wrap;html=1;fillColor=#f8cecc;strokeColor=#b85450;" parent="1" vertex="1">
          <mxGeometry x="300" y="800" width="150" height="70" as="geometry" />
        </mxCell>
        <mxCell id="ABeEWM-SGmRWgQ4ZddoU-1" value="We can now call the inferrer multiple times. It needs to adjust the inference algorithm." style="rounded=1;whiteSpace=wrap;html=1;fillColor=#f8cecc;strokeColor=#b85450;" vertex="1" parent="1">
          <mxGeometry x="700" y="50" width="260" height="50" as="geometry" />
        </mxCell>
      </root>
    </mxGraphModel>
  </diagram>
</mxfile>
